<svg width="133" height="32" viewBox="0 0 133 32" fill="none" xmlns="http://www.w3.org/2000/svg">
<path d="M47.5879 16.3496C47.5879 17.7428 47.3535 18.9603 46.8848 20.002C46.416 21.0371 45.752 21.8281 44.8926 22.375C44.0332 22.9219 43.0306 23.1953 41.8848 23.1953C40.765 23.1953 39.7721 22.9219 38.9062 22.375C38.0404 21.8216 37.3665 21.0371 36.8848 20.0215C36.4095 18.9993 36.1654 17.8177 36.1523 16.4766V15.4512C36.1523 14.084 36.39 12.8763 36.8652 11.8281C37.3405 10.7799 38.0111 9.97917 38.877 9.42578C39.7493 8.86589 40.7454 8.58594 41.8652 8.58594C43.0046 8.58594 44.0072 8.86263 44.873 9.41602C45.7454 9.96289 46.416 10.7604 46.8848 11.8086C47.3535 12.8503 47.5879 14.0645 47.5879 15.4512V16.3496ZM45.7227 15.4316C45.7227 13.7454 45.3841 12.4531 44.707 11.5547C44.0299 10.6497 43.0827 10.1973 41.8652 10.1973C40.6803 10.1973 39.7461 10.6497 39.0625 11.5547C38.3854 12.4531 38.0371 13.7031 38.0176 15.3047V16.3496C38.0176 17.9837 38.3594 19.2695 39.043 20.207C39.7331 21.138 40.6803 21.6035 41.8848 21.6035C43.0957 21.6035 44.0332 21.1641 44.6973 20.2852C45.3613 19.3997 45.7031 18.1335 45.7227 16.4863V15.4316ZM52.2852 21.4668H59.0234V23H50.4004V8.78125H52.2852V21.4668ZM80.0273 23H78.1426V16.4277H70.9746V23H69.0996V8.78125H70.9746V14.8945H78.1426V8.78125H80.0273V23ZM93.3672 8.78125V18.4492C93.3607 19.7904 92.9375 20.8874 92.0977 21.7402C91.2643 22.5931 90.1315 23.0716 88.6992 23.1758L88.2012 23.1953C86.6452 23.1953 85.4049 22.7754 84.4805 21.9355C83.556 21.0957 83.0872 19.9401 83.0742 18.4688V8.78125H84.9297V18.4102C84.9297 19.4388 85.2129 20.2396 85.7793 20.8125C86.3457 21.3789 87.153 21.6621 88.2012 21.6621C89.2624 21.6621 90.0729 21.3789 90.6328 20.8125C91.1992 20.2461 91.4824 19.4486 91.4824 18.4199V8.78125H93.3672ZM96.3262 23V8.78125H100.975C102.518 8.78125 103.676 9.10026 104.451 9.73828C105.232 10.3763 105.623 11.3203 105.623 12.5703C105.623 13.2344 105.434 13.8236 105.057 14.3379C104.679 14.8457 104.165 15.2396 103.514 15.5195C104.282 15.7344 104.887 16.1445 105.33 16.75C105.779 17.349 106.004 18.0651 106.004 18.8984C106.004 20.1745 105.59 21.1771 104.764 21.9062C103.937 22.6354 102.768 23 101.258 23H96.3262ZM98.2012 16.3496V21.4668H101.297C102.169 21.4668 102.856 21.2422 103.357 20.793C103.865 20.3372 104.119 19.7122 104.119 18.918C104.119 17.2057 103.188 16.3496 101.326 16.3496H98.2012ZM98.2012 14.8457H101.033C101.854 14.8457 102.508 14.6406 102.996 14.2305C103.491 13.8203 103.738 13.2637 103.738 12.5605C103.738 11.7793 103.51 11.2129 103.055 10.8613C102.599 10.5033 101.906 10.3242 100.975 10.3242H98.2012V14.8457Z" fill="#333333"/>
<g clip-path="url(#clip0)">
<path d="M13.2146 1L0 8.17176V23.6915L13.2146 30.7143L26 23.6838V8.17557L13.2146 1ZM1.22605 9.61145L11.7548 15.8934L1.22605 22.2403V9.61145ZM13.2069 29.3281L1.85057 23.2905L12.9617 16.6075L24.1609 23.3019L13.2069 29.3281ZM24.7778 22.2479L1.84674 8.56128L13.2069 2.39387L24.7778 8.88588V22.2479Z" fill="#333333"/>
</g>
<defs>
<clipPath id="clip0">
<rect width="26" height="29.7143" fill="white" transform="translate(0 1)"/>
</clipPath>
</defs>
</svg>
